<svg id="Layer_7" data-name="Layer 7" xmlns="http://www.w3.org/2000/svg" viewBox="0 0 188 41.6"><defs><style>.cls-1{fill:#183c44;}.cls-2{fill:#00ae9a;}</style></defs><title>logo</title><path class="cls-1" d="M65,25V15.88a6.09,6.09,0,0,0-12.18,0V25A6.09,6.09,0,0,0,65,25ZM62,25a3,3,0,0,1-6.08,0V15.88a3,3,0,0,1,6.08,0Z" transform="translate(0 -0.16)"/><path class="cls-1" d="M111.32,31.11a5.34,5.34,0,0,0,5.31-5.34V19.69a5.33,5.33,0,1,0-10.65,0v6.08A5.37,5.37,0,0,0,111.32,31.11ZM109,19.69a2.31,2.31,0,0,1,2.29-2.29,2.28,2.28,0,0,1,2.26,2.29v6.08a2.28,2.28,0,0,1-2.26,2.29A2.31,2.31,0,0,1,109,25.77Z" transform="translate(0 -0.16)"/><path class="cls-1" d="M121.9,19.69a2.31,2.31,0,0,1,2.29-2.29,2.28,2.28,0,0,1,2.26,2.29V31.11h3.05V19.69a2.29,2.29,0,0,1,4.58,0V31.11h3V19.69a5.1,5.1,0,0,0-4.95-5.34,4.76,4.76,0,0,0-3.72,1.83,4.31,4.31,0,0,0-3.51-1.83,4.17,4.17,0,0,0-3,1.28V14.35h-3.05V31.11h3.05Z" transform="translate(0 -0.16)"/><path class="cls-1" d="M98.41,31.11a6.11,6.11,0,0,0,6-4.76l-2.91-1.3a3,3,0,0,1-6.07,0V15.88a3,3,0,0,1,6.07-.07l2.9-1.29a6.09,6.09,0,0,0-12,1.36V25A6.07,6.07,0,0,0,98.41,31.11Z" transform="translate(0 -0.16)"/><polygon class="cls-1" points="101.46 24.88 101.45 24.88 101.45 24.88 101.46 24.88"/><path class="cls-1" d="M70.28,29.83a4.17,4.17,0,0,0,3,1.28c2.75,0,4.58-2.41,4.58-5.34V19.69c0-2.93-1.83-5.34-4.58-5.34a4.17,4.17,0,0,0-3,1.28V14.35H67.23v21.8h3.05Zm0-10.14a2.31,2.31,0,0,1,2.29-2.29,2.28,2.28,0,0,1,2.26,2.29v6.08a2.28,2.28,0,0,1-2.26,2.29,2.31,2.31,0,0,1-2.29-2.29Z" transform="translate(0 -0.16)"/><path class="cls-1" d="M142.71,29.83a4.17,4.17,0,0,0,3,1.28c2.75,0,4.58-2.41,4.58-5.34V19.69c0-2.93-1.83-5.34-4.58-5.34a4.17,4.17,0,0,0-3,1.28V14.35h-3.05v21.8h3.05Zm0-10.14A2.31,2.31,0,0,1,145,17.4a2.28,2.28,0,0,1,2.26,2.29v6.08A2.28,2.28,0,0,1,145,28.06a2.31,2.31,0,0,1-2.29-2.29Z" transform="translate(0 -0.16)"/><path class="cls-1" d="M158,14.35a5.37,5.37,0,0,0-5.18,4l2.89,1.29A2.31,2.31,0,0,1,158,17.4a2.28,2.28,0,0,1,2.26,2.29v.76H158a5.34,5.34,0,0,0-5.34,5.31c0,2.93,1.83,5.34,4.58,5.34a4.17,4.17,0,0,0,3-1.28v1.28h3.05V19.69A5.34,5.34,0,0,0,158,14.35Zm2.26,11.42A2.28,2.28,0,0,1,158,28.06a2.31,2.31,0,0,1-2.29-2.29A2.28,2.28,0,0,1,158,23.51h2.26Z" transform="translate(0 -0.16)"/><path class="cls-1" d="M182.69,21.22a2.13,2.13,0,0,1-2.29-1.89,2.16,2.16,0,0,1,2.29-1.92,2.2,2.2,0,0,1,1.74.83L187.26,17a5.31,5.31,0,0,0-4.57-2.63,5.18,5.18,0,0,0-5.34,5,5.16,5.16,0,0,0,5.34,4.95,2.1,2.1,0,0,1,2.26,1.89,2.1,2.1,0,0,1-2.26,1.89,2.31,2.31,0,0,1-2.25-1.9l-2.82,1.26a5.37,5.37,0,0,0,5.07,3.69A5.13,5.13,0,0,0,188,26.17,5.13,5.13,0,0,0,182.69,21.22Z" transform="translate(0 -0.16)"/><path class="cls-1" d="M170.76,21.22a2.13,2.13,0,0,1-2.29-1.89,2.16,2.16,0,0,1,2.29-1.92,2.2,2.2,0,0,1,1.74.83L175.33,17a5.31,5.31,0,0,0-4.57-2.63,5.18,5.18,0,0,0-5.34,5,5.16,5.16,0,0,0,5.34,4.95A2.1,2.1,0,0,1,173,26.17a2.1,2.1,0,0,1-2.26,1.89,2.31,2.31,0,0,1-2.25-1.9l-2.82,1.26a5.37,5.37,0,0,0,5.07,3.69,5.13,5.13,0,0,0,5.31-4.95A5.13,5.13,0,0,0,170.76,21.22Z" transform="translate(0 -0.16)"/><path class="cls-1" d="M84.74,24.27A2.1,2.1,0,0,1,87,26.17a2.1,2.1,0,0,1-2.26,1.89,2.31,2.31,0,0,1-2.25-1.9l-2.82,1.26a5.37,5.37,0,0,0,5.07,3.69,5.13,5.13,0,0,0,5.31-4.95,5.13,5.13,0,0,0-5.31-4.95,2.13,2.13,0,0,1-2.29-1.89,2.16,2.16,0,0,1,2.29-1.92,2.2,2.2,0,0,1,1.74.83L89.31,17a5.31,5.31,0,0,0-4.57-2.63,5.18,5.18,0,0,0-5.34,5A5.16,5.16,0,0,0,84.74,24.27Z" transform="translate(0 -0.16)"/><path class="cls-2" d="M39.34,15.5,26.26,2.42a7.72,7.72,0,0,0-10.91,0L2.26,15.5a7.72,7.72,0,0,0,0,10.91L15.34,39.5a7.72,7.72,0,0,0,10.91,0L39.34,26.42A7.72,7.72,0,0,0,39.34,15.5ZM28.42,23.22l-5.37,5.37a3.19,3.19,0,0,1-4.51,0l-1.37-1.37-4.73,2.11,2.11-4.73-1.37-1.37a3.19,3.19,0,0,1,0-4.51l5.37-5.37a3.19,3.19,0,0,1,4.51,0l1.37,1.37,4.73-2.11L27,17.33l1.37,1.37a3.19,3.19,0,0,1,0,4.51Z" transform="translate(0 -0.16)"/></svg>