<svg id="Layer_10" xmlns="http://www.w3.org/2000/svg" viewBox="0 0 490.6 108.6"><style>.st0{fill:#FFFFFF;} .st1{fill:#00AE9A;}</style><path class="st0" d="M169.6 64.9V41c0-8.8-7.2-15.9-15.9-15.9s-15.9 7.1-15.9 15.9v23.9c0 8.8 7.1 15.9 15.9 15.9s15.9-7.1 15.9-15.9zm-7.9 0c0 4.4-3.6 7.9-8 7.9s-7.9-3.5-7.9-7.9V41c0-4.4 3.5-7.9 7.9-7.9s8 3.5 8 7.9v23.9zM290.5 80.8c7.6 0 13.9-6.3 13.9-13.9V51c0-7.6-6.2-13.9-13.9-13.9-7.6 0-13.9 6.3-13.9 13.9v15.9c-.1 7.6 6.2 13.9 13.9 13.9zm-6-29.8c0-3.3 2.7-6 6-6s5.9 2.7 5.9 6v15.9c0 3.3-2.6 6-5.9 6-3.3 0-6-2.7-6-6V51zM318.1 51c0-3.3 2.7-6 6-6s5.9 2.7 5.9 6v29.8h8V51c0-3.3 2.7-6 6-6s6 2.7 6 6v29.8h7.9V51c0-7.6-5.5-13.9-12.9-13.9-4 0-7.4 1.9-9.7 4.8-2.1-2.9-5.3-4.8-9.2-4.8-3.2 0-5.8 1.3-7.9 3.3V37h-8v43.7h8V51zM256.8 80.8c7.6 0 14-5.3 15.6-12.4l-7.6-3.4c0 4.4-3.6 7.8-8 7.8s-7.9-3.5-7.9-7.9V41c0-4.4 3.5-7.9 7.9-7.9 4.3 0 7.9 3.4 8 7.7l7.6-3.4c-1.6-7-8-12.3-15.5-12.3-8.8 0-15.9 7.1-15.9 15.9v23.9c-.1 8.8 7 15.9 15.8 15.9zM264.7 64.9zM183.4 77.4c2.1 2.1 4.7 3.3 7.9 3.3 7.2 0 11.9-6.3 11.9-13.9V51c0-7.6-4.8-13.9-11.9-13.9-3.2 0-5.8 1.3-7.9 3.3V37h-8v56.9h8V77.4zm0-26.4c0-3.3 2.7-6 6-6s5.9 2.7 5.9 6v15.9c0 3.3-2.6 6-5.9 6-3.3 0-6-2.7-6-6V51zM372.4 77.4c2.1 2.1 4.7 3.3 7.9 3.3 7.2 0 11.9-6.3 11.9-13.9V51c0-7.6-4.8-13.9-11.9-13.9-3.2 0-5.8 1.3-7.9 3.3V37h-8v56.9h8V77.4zm0-26.4c0-3.3 2.7-6 6-6s5.9 2.7 5.9 6v15.9c0 3.3-2.6 6-5.9 6-3.3 0-6-2.7-6-6V51zM412.4 37c-6.5 0-12 4.5-13.5 10.6l7.5 3.4c0-3.3 2.7-6 6-6s5.9 2.7 5.9 6v2h-5.9c-7.6 0-13.9 6.2-13.9 13.9 0 7.6 4.8 13.9 11.9 13.9 3.2 0 5.8-1.3 7.9-3.3v3.3h8V51c0-7.7-6.2-14-13.9-14zm5.9 29.8c0 3.3-2.6 6-5.9 6-3.3 0-6-2.7-6-6s2.7-5.9 6-5.9h5.9v5.9zM476.7 55c-3.3 0-6-2.2-6-4.9s2.7-5 6-5c1.9 0 3.5.8 4.5 2.2l7.4-3.3c-2.4-4.1-6.9-6.8-11.9-6.8-7.6 0-13.9 5.8-13.9 13s6.3 12.9 13.9 12.9c3.3 0 5.9 2.2 5.9 4.9s-2.6 4.9-5.9 4.9c-2.9 0-5.4-2.2-5.9-4.9l-7.4 3.3c1.8 5.6 7.1 9.6 13.2 9.6 7.6 0 13.9-5.7 13.9-12.9.1-7.3-6.1-13-13.8-13zM445.6 55c-3.3 0-6-2.2-6-4.9s2.7-5 6-5c1.8 0 3.5.8 4.5 2.2l7.4-3.3c-2.4-4.1-6.9-6.8-11.9-6.8-7.6 0-13.9 5.8-13.9 13s6.3 12.9 13.9 12.9c3.3 0 5.9 2.2 5.9 4.9s-2.6 4.9-5.9 4.9c-2.9 0-5.4-2.2-5.9-4.9l-7.4 3.3c1.8 5.6 7.1 9.6 13.2 9.6 7.6 0 13.9-5.7 13.9-12.9 0-7.3-6.2-13-13.8-13zM221.1 62.9c3.3 0 5.9 2.2 5.9 4.9s-2.6 4.9-5.9 4.9c-2.9 0-5.4-2.2-5.9-4.9l-7.4 3.3c1.8 5.6 7.1 9.6 13.2 9.6 7.6 0 13.9-5.7 13.9-12.9s-6.2-12.9-13.9-12.9c-3.3 0-6-2.2-6-4.9s2.7-5 6-5c1.8 0 3.5.8 4.5 2.2l7.4-3.3c-2.4-4.1-6.9-6.8-11.9-6.8-7.6 0-13.9 5.8-13.9 13 .1 7.1 6.4 12.8 14 12.8z"/><path class="st1" d="M102.7 40L68.5 5.9C60.7-2 47.9-2 40 5.9L5.9 40C-2 47.9-2 60.6 5.9 68.5L40 102.7c7.9 7.9 20.6 7.9 28.5 0l34.1-34.1c7.9-7.9 7.9-20.7.1-28.6zM74.2 60.2l-14 14c-1.6 1.6-3.8 2.4-5.9 2.4-2.1 0-4.3-.8-5.9-2.4l-3.6-3.6-12.3 5.5L38 63.7l-3.6-3.6c-1.6-1.6-2.4-3.7-2.4-5.9s.9-4.3 2.4-5.9l14-14c1.6-1.6 3.7-2.4 5.9-2.4s4.3.9 5.9 2.4l3.6 3.6 12.3-5.5-5.5 12.3 3.6 3.6c1.6 1.6 2.4 3.7 2.4 5.9 0 2.3-.9 4.4-2.4 6z"/></svg>