<svg id="Layer_1" data-name="Layer 1" xmlns="http://www.w3.org/2000/svg" viewBox="0 0 576 131.12"><defs><style>.cls-1{fill:#142D34;} .cls-2{fill:#16A086;}</style></defs><title>Artboard 1</title><path class="cls-1" d="M256.62,113l-.07-9.73a6.48,6.48,0,0,0-13,.09l.07,9.74a6.48,6.48,0,0,0,13-.1Zm-3.24,0a3.23,3.23,0,0,1-3.22,3.23,3.19,3.19,0,0,1-3.24-3.18l-.07-9.74A3.2,3.2,0,0,1,250,100.1a3.24,3.24,0,0,1,3.27,3.19Z"/><path class="cls-1" d="M305.9,119.11a5.68,5.68,0,0,0,5.6-5.72l0-6.46a5.67,5.67,0,1,0-11.33.08l.05,6.46A5.71,5.71,0,0,0,305.9,119.11ZM303.38,107a2.42,2.42,0,1,1,4.83,0l.05,6.46a2.42,2.42,0,0,1-2.39,2.45,2.45,2.45,0,0,1-2.45-2.42Z"/><path class="cls-1" d="M317.06,106.89a2.47,2.47,0,0,1,2.42-2.46,2.43,2.43,0,0,1,2.42,2.42L322,119l3.24,0-.08-12.14a2.43,2.43,0,1,1,4.86,0l.09,12.14,3.22,0-.09-12.14a5.42,5.42,0,0,0-5.3-5.64,5.09,5.09,0,0,0-3.95,2,4.58,4.58,0,0,0-3.74-1.92,4.45,4.45,0,0,0-3.21,1.39v-1.36l-3.24,0,.13,17.82,3.24,0Z"/><path class="cls-1" d="M292.18,119.21a6.5,6.5,0,0,0,6.3-5.11l-3.1-1.36a3.23,3.23,0,0,1-6.46,0l-.07-9.74a3.23,3.23,0,0,1,6.45-.12l3.08-1.4a6.48,6.48,0,0,0-12.78,1.55l.08,9.73A6.46,6.46,0,0,0,292.18,119.21Z"/><polygon class="cls-1" points="295.37 112.72 295.37 112.72 295.37 112.73 295.37 112.72"/><path class="cls-1" d="M262.27,118.06a4.41,4.41,0,0,0,3.22,1.34c2.92,0,4.85-2.6,4.83-5.72l-.05-6.45c0-3.12-2-5.67-4.91-5.65a4.43,4.43,0,0,0-3.2,1.39v-1.36l-3.25,0,.17,23.18,3.25,0Zm-.08-10.78a2.45,2.45,0,0,1,2.42-2.45,2.41,2.41,0,0,1,2.41,2.42l.05,6.46a2.42,2.42,0,0,1-2.38,2.45,2.45,2.45,0,0,1-2.45-2.42Z"/><path class="cls-1" d="M339.27,117.5a4.41,4.41,0,0,0,3.22,1.34c2.92,0,4.85-2.6,4.83-5.71l-.05-6.46c0-3.12-2-5.67-4.91-5.65a4.41,4.41,0,0,0-3.2,1.39v-1.36l-3.25,0,.17,23.18,3.25,0Zm-.08-10.77a2.45,2.45,0,0,1,2.41-2.46,2.42,2.42,0,0,1,2.42,2.42l.05,6.46a2.42,2.42,0,0,1-2.38,2.45,2.46,2.46,0,0,1-2.46-2.42Z"/><path class="cls-1" d="M355.45,100.93a5.7,5.7,0,0,0-5.47,4.34l3.07,1.35a2.46,2.46,0,0,1,2.42-2.45,2.43,2.43,0,0,1,2.42,2.42v.81l-2.41,0a5.68,5.68,0,0,0-5.64,5.69c0,3.11,2,5.66,4.91,5.64a4.45,4.45,0,0,0,3.21-1.39v1.37l3.24,0-.09-12.13A5.67,5.67,0,0,0,355.45,100.93Zm2.49,12.12a2.43,2.43,0,0,1-2.39,2.45,2.45,2.45,0,0,1-2.45-2.42,2.43,2.43,0,0,1,2.42-2.42h2.4Z"/><path class="cls-1" d="M381.69,108a2.25,2.25,0,0,1-2.44-2,2.28,2.28,0,0,1,2.41-2.06,2.37,2.37,0,0,1,1.86.87l3-1.36a5.64,5.64,0,0,0-4.88-2.75,5.28,5.28,0,1,0,.08,10.54,2,2,0,1,1,0,4,2.46,2.46,0,0,1-2.41-2l-3,1.36a5.7,5.7,0,0,0,5.42,3.88,5.27,5.27,0,1,0-.08-10.51Z"/><path class="cls-1" d="M369,108.13a2.27,2.27,0,0,1-2.45-2,2.3,2.3,0,0,1,2.42-2.07,2.36,2.36,0,0,1,1.86.88l3-1.37a5.64,5.64,0,0,0-4.87-2.75,5.29,5.29,0,1,0,.08,10.55,2,2,0,1,1,0,4,2.45,2.45,0,0,1-2.41-2l-3,1.36a5.72,5.72,0,0,0,5.42,3.89,5.27,5.27,0,1,0-.08-10.52Z"/><path class="cls-1" d="M277.6,112a2,2,0,1,1,0,4,2.47,2.47,0,0,1-2.41-2l-3,1.36a5.7,5.7,0,0,0,5.42,3.88,5.27,5.27,0,1,0-.07-10.51,2.26,2.26,0,0,1-2.45-2,2.29,2.29,0,0,1,2.42-2.06,2.33,2.33,0,0,1,1.85.87l3-1.36a5.66,5.66,0,0,0-4.88-2.76A5.29,5.29,0,1,0,277.6,112Z"/><path class="cls-2" d="M229.27,103.07l-14-13.81a8.2,8.2,0,0,0-11.6.09l-13.81,14a8.2,8.2,0,0,0,.08,11.6l14,13.8a8.2,8.2,0,0,0,11.6-.08l13.81-14A8.21,8.21,0,0,0,229.27,103.07Zm-11.55,8.28-5.67,5.75a3.38,3.38,0,0,1-4.79,0l-1.47-1.45-5,2.28,2.2-5-1.47-1.45a3.39,3.39,0,0,1,0-4.8l5.66-5.74a3.4,3.4,0,0,1,4.8,0l1.47,1.45,5-2.28-2.21,5,1.47,1.45a3.3,3.3,0,0,1,1,2.39A3.36,3.36,0,0,1,217.72,111.35Z"/><path class="cls-1" d="M15.49,52.05H9.87L40.21,1.45h5.44Z"/><path class="cls-1" d="M52.4,50.61V2.86H63.72q7.82,0,11.62,2.72A16.33,16.33,0,0,1,81,13.81,40,40,0,0,1,83,26.86a35.84,35.84,0,0,1-2,12.53,18.56,18.56,0,0,1-5.71,8.31q-3.69,2.91-11.51,2.91Zm6.22-5.26h4.14c4.2,0,7.19-.75,9-2.25a12.29,12.29,0,0,0,3.83-6.24,41.19,41.19,0,0,0,1.16-11q0-6.87-1.36-10.56a12.39,12.39,0,0,0-3.87-5.68c-1.67-1.33-4.43-2-8.26-2H58.62Z"/><path class="cls-1" d="M115.49,48.32a30.45,30.45,0,0,1-13,3.24,15.24,15.24,0,0,1-8.31-2.31,16.4,16.4,0,0,1-5.86-6.59,19.91,19.91,0,0,1-2.2-9.17,20.61,20.61,0,0,1,2.09-9,16.24,16.24,0,0,1,5.85-6.75,15.13,15.13,0,0,1,8.37-2.41,12.27,12.27,0,0,1,9.83,4.36Q116,24,116,33.1v1.23H92.3a14.23,14.23,0,0,0,1.49,6.54,10.63,10.63,0,0,0,3.92,4.44,10.41,10.41,0,0,0,5.54,1.48q5.53,0,12.24-3.7ZM92.63,30.06h17.14v-.83a10.19,10.19,0,0,0-2.06-6.69,6.82,6.82,0,0,0-5.51-2.48,8.2,8.2,0,0,0-6,2.53A14.3,14.3,0,0,0,92.63,30.06Z"/><path class="cls-1" d="M131.19,50.61,116.26,16.24h6.27l11.8,27.23,12-27.23h5.74L137,50.61Z"/><path class="cls-1" d="M185.57,62.05a26.39,26.39,0,0,1-14.37-4.82,30.22,30.22,0,0,1-9.34-11.58A33.52,33.52,0,0,1,158.37,31a33.52,33.52,0,0,1,3.49-14.61A30.22,30.22,0,0,1,171.2,4.85,26.57,26.57,0,0,1,185.57,0V4.77a20.11,20.11,0,0,0-11.08,4.32,25.94,25.94,0,0,0-7.29,9.53A29.53,29.53,0,0,0,164.55,31a29.54,29.54,0,0,0,2.65,12.41,25.71,25.71,0,0,0,7.29,9.51,20.36,20.36,0,0,0,11.08,4.34Z"/><path class="cls-1" d="M196.21,49.59V43.74a31.24,31.24,0,0,0,13.37,3.54,12.24,12.24,0,0,0,4.82-1,7.41,7.41,0,0,0,3.48-2.79,7.05,7.05,0,0,0,1.18-3.94,7.68,7.68,0,0,0-1.62-4.67,21.15,21.15,0,0,0-6.1-4.79l-3.12-1.8-3.16-1.83q-8.4-4.95-8.39-12.32A12.23,12.23,0,0,1,200.4,5.1q3.75-3.69,11.68-3.68A34,34,0,0,1,222,2.86V8.18a28.7,28.7,0,0,0-10.22-2,9.48,9.48,0,0,0-6.41,2.1,6.43,6.43,0,0,0-2.44,5.05,6.71,6.71,0,0,0,1.87,4.87,20.28,20.28,0,0,0,4.78,3.58L212,23.24l3,1.8,2.47,1.48q7.86,4.8,7.87,12.06a12.88,12.88,0,0,1-4,9.5q-4,4-12.91,4a29.29,29.29,0,0,1-5.39-.48A43.77,43.77,0,0,1,196.21,49.59Z"/><path class="cls-1" d="M257.81,48.32a30.53,30.53,0,0,1-13,3.24,15.23,15.23,0,0,1-8.3-2.31,16.33,16.33,0,0,1-5.86-6.59,19.78,19.78,0,0,1-2.2-9.17,20.47,20.47,0,0,1,2.09-9,16.1,16.1,0,0,1,5.85-6.75,15.12,15.12,0,0,1,8.36-2.41,12.25,12.25,0,0,1,9.83,4.36Q258.3,24,258.3,33.1v1.23H234.61a14.36,14.36,0,0,0,1.49,6.54A10.69,10.69,0,0,0,240,45.31a10.41,10.41,0,0,0,5.54,1.48q5.53,0,12.25-3.7ZM235,30.06h17.13v-.83A10.13,10.13,0,0,0,250,22.54a6.8,6.8,0,0,0-5.5-2.48,8.22,8.22,0,0,0-6,2.53A14.37,14.37,0,0,0,235,30.06Z"/><path class="cls-1" d="M291.23,49.62a34.42,34.42,0,0,1-11,1.94,17.74,17.74,0,0,1-9.18-2.38,16.91,16.91,0,0,1-6.26-6.47,18.82,18.82,0,0,1-2.24-9.27,17.71,17.71,0,0,1,5.09-13A16.6,16.6,0,0,1,280,15.29a35.39,35.39,0,0,1,11.26,2V22.8a26.26,26.26,0,0,0-10.74-2.74,12,12,0,0,0-5.91,1.55,10.21,10.21,0,0,0-4.27,4.85,16,16,0,0,0-1.51,6.76,15.34,15.34,0,0,0,2.91,8.86q2.91,4.22,9.12,4.22a26.49,26.49,0,0,0,3.69-.26,46.9,46.9,0,0,0,6.71-1.93Z"/><path class="cls-1" d="M307,52.05V1.45h5v50.6Z"/><path class="cls-1" d="M342.6,52.05a13.78,13.78,0,0,1-12.42-6.85q-4.29-6.84-4.29-18.48t4.29-18.46a14.71,14.71,0,0,1,24.85,0q4.26,6.86,4.27,18.46T355,45.2A13.79,13.79,0,0,1,342.6,52.05Zm0-4.77q4.48,0,7.49-5.1t3-15.45q0-10.35-3-15.45t-7.49-5.1q-4.5,0-7.49,5.1t-3,15.45q0,10.35,3,15.45T342.6,47.28Z"/><path class="cls-1" d="M369.7,24a18.94,18.94,0,0,1,6.31-6.5,13.39,13.39,0,0,1,6.73-2.18A10.37,10.37,0,0,1,390.5,19q3.45,3.72,3.44,11.29A24,24,0,0,1,391.65,41a19.3,19.3,0,0,1-6.11,7.42,15.86,15.86,0,0,1-9.44,2.72c-1.07,0-2.71-.12-4.92-.34l-1.48-.15V64H364V16.24h5.72Zm0,6.81V45.53a23.23,23.23,0,0,0,5.72.8,11.17,11.17,0,0,0,8.76-4.08q3.54-4.08,3.55-11.17c0-3.43-.65-6-1.94-7.73a5.51,5.51,0,0,0-4.4-2.59c-1.78,0-3.75.91-5.89,2.72A26.16,26.16,0,0,0,369.7,30.78Z"/><path class="cls-1" d="M396.47,48.79V42.73a22.6,22.6,0,0,0,7.29,3.15,28.92,28.92,0,0,0,6.52.91q4.34,0,6.24-1.4a4.17,4.17,0,0,0,1.91-3.49,3.44,3.44,0,0,0-.89-2.37,13.87,13.87,0,0,0-4.43-2.43l-2-.8-4-1.57q-6.39-2.49-8.06-4.61A7.87,7.87,0,0,1,397.42,25a8.67,8.67,0,0,1,3.28-7q3.29-2.75,10.64-2.74a33.56,33.56,0,0,1,10.45,1.6v5.2a31.57,31.57,0,0,0-10.67-2,10.72,10.72,0,0,0-5.68,1.27,3.73,3.73,0,0,0-2.05,3.19,3.34,3.34,0,0,0,1.78,2.95A31.83,31.83,0,0,0,410.9,30l3.88,1.42c3.55,1.29,6,2.7,7.47,4.21a8,8,0,0,1,2.15,5.7A9.12,9.12,0,0,1,421,48.68q-3.44,2.88-11,2.88A36.33,36.33,0,0,1,396.47,48.79Z"/><path class="cls-1" d="M439.35,52.05V1.45h5v50.6Z"/><path class="cls-1" d="M460.67,52.05a5,5,0,0,1-3.53-8.57,5,5,0,0,1,7.05,0,5,5,0,0,1-3.52,8.57Z"/><path class="cls-1" d="M478,30.33V19.66l-8.08,5.82-2.85-5,9.44-4.62-9.44-4.67,2.86-4.89L478,12.15V1.45h5.78v10.7l8.12-5.79,2.88,4.87-9.48,4.67,9.48,4.62-2.89,5-8.11-5.84V30.33Z"/><path class="cls-1" d="M499.94,0A26.54,26.54,0,0,1,514.3,4.85a30.22,30.22,0,0,1,9.34,11.58A33.52,33.52,0,0,1,527.13,31a33.52,33.52,0,0,1-3.49,14.61,30.22,30.22,0,0,1-9.34,11.58,26.36,26.36,0,0,1-14.36,4.82V57.28A20.36,20.36,0,0,0,511,52.94a25.92,25.92,0,0,0,7.29-9.51A29.4,29.4,0,0,0,521,31a29.39,29.39,0,0,0-2.66-12.4A26.16,26.16,0,0,0,511,9.09a20.11,20.11,0,0,0-11.06-4.32Z"/><path class="cls-1" d="M534.84,52.05h-5.63l30.34-50.6H565Z"/></svg>